<svg width="18" height="8" viewBox="0 0 18 8" fill="none" xmlns="http://www.w3.org/2000/svg">
<g clip-path="url(#clip0_402_2)">
<circle cx="1" cy="1" r="1" fill="black"/>
<circle cx="1" cy="7" r="1" fill="black"/>
<path fill-rule="evenodd" clip-rule="evenodd" d="M2 4L6 1L17 4L6 7L2 4ZM6 5.75C6.9665 5.75 7.75 4.9665 7.75 4C7.75 3.0335 6.9665 2.25 6 2.25C5.0335 2.25 4.25 3.0335 4.25 4C4.25 4.9665 5.0335 5.75 6 5.75Z" fill="black"/>
<path d="M6 1L6.15787 0.421142C5.97924 0.372424 5.78812 0.408907 5.64 0.52L6 1ZM2 4L1.64 3.52C1.48892 3.63331 1.4 3.81115 1.4 4C1.4 4.18885 1.48892 4.36669 1.64 4.48L2 4ZM17 4L17.1579 4.57886C17.4189 4.50767 17.6 4.27057 17.6 4C17.6 3.72943 17.4189 3.49233 17.1579 3.42114L17 4ZM6 7L5.64 7.48C5.78812 7.59109 5.97924 7.62758 6.15787 7.57886L6 7ZM5.64 0.52L1.64 3.52L2.36 4.48L6.36 1.48L5.64 0.52ZM17.1579 3.42114L6.15787 0.421142L5.84213 1.57886L16.8421 4.57886L17.1579 3.42114ZM6.15787 7.57886L17.1579 4.57886L16.8421 3.42114L5.84213 6.42114L6.15787 7.57886ZM1.64 4.48L5.64 7.48L6.36 6.52L2.36 3.52L1.64 4.48ZM7.15 4C7.15 4.63513 6.63513 5.15 6 5.15V6.35C7.29787 6.35 8.35 5.29787 8.35 4H7.15ZM6 2.85C6.63513 2.85 7.15 3.36487 7.15 4H8.35C8.35 2.70213 7.29787 1.65 6 1.65V2.85ZM4.85 4C4.85 3.36487 5.36487 2.85 6 2.85V1.65C4.70213 1.65 3.65 2.70213 3.65 4H4.85ZM6 5.15C5.36487 5.15 4.85 4.63513 4.85 4H3.65C3.65 5.29787 4.70213 6.35 6 6.35V5.15Z" fill="black"/>
</g>
<defs>
<clipPath id="clip0_402_2">
<rect width="18" height="8" fill="white"/>
</clipPath>
</defs>
</svg>
