<?xml version="1.0" encoding="UTF-8" standalone="no"?>
<svg
   xmlns:dc="http://purl.org/dc/elements/1.1/"
   xmlns:cc="http://creativecommons.org/ns#"
   xmlns:rdf="http://www.w3.org/1999/02/22-rdf-syntax-ns#"
   xmlns:svg="http://www.w3.org/2000/svg"
   xmlns="http://www.w3.org/2000/svg"
   xmlns:sodipodi="http://sodipodi.sourceforge.net/DTD/sodipodi-0.dtd"
   xmlns:inkscape="http://www.inkscape.org/namespaces/inkscape"
   width="1"
   height="1"
   fill="none"
   version="1.1"
   id="svg4"
   sodipodi:docname="aws.min.svg"
   inkscape:version="1.0.2-2 (e86c870879, 2021-01-15)">
  <metadata
     id="metadata10">
    <rdf:RDF>
      <cc:Work
         rdf:about="">
        <dc:format>image/svg+xml</dc:format>
        <dc:type
           rdf:resource="http://purl.org/dc/dcmitype/StillImage" />
      </cc:Work>
    </rdf:RDF>
  </metadata>
  <defs
     id="defs8" />
  <sodipodi:namedview
     pagecolor="#ffffff"
     bordercolor="#666666"
     borderopacity="1"
     objecttolerance="10"
     gridtolerance="10"
     guidetolerance="10"
     inkscape:pageopacity="0"
     inkscape:pageshadow="2"
     inkscape:window-width="2498"
     inkscape:window-height="1417"
     id="namedview6"
     showgrid="false"
     inkscape:zoom="256"
     inkscape:cx="0.5"
     inkscape:cy="0.5"
     inkscape:window-x="-8"
     inkscape:window-y="-8"
     inkscape:window-maximized="1"
     inkscape:current-layer="svg4" />
  <path
     d="m 0.945,0.64465625 c -0.015,-0.017 -0.092,-0.008 -0.127,-0.004 -0.01,0.001 -0.012,-0.008 -0.003,-0.015 0.062,-0.043 0.165,-0.03 0.176,-0.016 0.012,0.015 -0.003,0.116 -0.061,0.165 -0.01,0.008 -0.018,0.004 -0.014,-0.006 0.014,-0.033 0.044,-0.106 0.029,-0.124 z m -0.045,0.052 a 0.724,0.724 0 0 1 -0.89,-0.064 c -0.01,-0.01 -0.001,-0.023 0.01,-0.016 a 0.975,0.975 0 0 0 0.863,0.054 c 0.019,-0.008 0.034,0.012 0.017,0.026 z m -0.616,-0.255 a 0.1,0.1 0 0 0 0.004,0.03 0.177,0.177 0 0 0 0.01,0.023 0.014,0.014 0 0 1 0.003,0.008 c -0.001,0.003 -0.002,0.006 -0.007,0.01 l -0.02,0.013 a 0.016,0.016 0 0 1 -0.009,0.003 c -0.003,0 -0.005,-0.001 -0.01,-0.004 a 0.102,0.102 0 0 1 -0.012,-0.016 0.255,0.255 0 0 1 -0.01,-0.02 0.121,0.121 0 0 1 -0.096,0.046 0.09,0.09 0 0 1 -0.067,-0.024 0.085,0.085 0 0 1 -0.024,-0.063 c 0,-0.028 0.01,-0.05 0.03,-0.068 a 0.12,0.12 0 0 1 0.08,-0.025 0.26,0.26 0 0 1 0.074,0.01 v -0.026 c 0,-0.024 -0.006,-0.041 -0.016,-0.051 -0.01,-0.01 -0.028,-0.016 -0.053,-0.016 a 0.15,0.15 0 0 0 -0.036,0.005 0.262,0.262 0 0 0 -0.047,0.015 0.02,0.02 0 0 1 -0.005,0.001 c -0.005,0 -0.007,-0.003 -0.007,-0.01 v -0.016 c 0,-0.005 0,-0.01 0.002,-0.012 a 0.025,0.025 0 0 1 0.01,-0.007 0.199,0.199 0 0 1 0.092,-0.021 c 0.038,0 0.067,0.01 0.085,0.027 0.018,0.018 0.028,0.045 0.028,0.081 v 0.108 z m -0.133,0.05 c 0.009,0 0.022,-0.002 0.034,-0.006 a 0.073,0.073 0 0 0 0.03,-0.021 0.052,0.052 0 0 0 0.012,-0.021 0.119,0.119 0 0 0 0.003,-0.029 v -0.014 a 0.274,0.274 0 0 0 -0.06,-0.007 c -0.024,-0.001 -0.04,0.004 -0.05,0.013 -0.01,0.009 -0.016,0.021 -0.016,0.038 0,0.015 0.004,0.027 0.012,0.035 0.008,0.008 0.02,0.012 0.035,0.012 z m 0.264,0.036 c -0.006,0 -0.01,-0.001 -0.013,-0.005 -0.002,0 -0.005,-0.005 -0.007,-0.012 l -0.077,-0.254 a 0.058,0.058 0 0 1 -0.003,-0.014 c 0,-0.005 0.003,-0.008 0.008,-0.008 h 0.032 c 0.007,0 0.01,0.001 0.013,0.003 0.003,0.002 0.005,0.007 0.007,0.013 l 0.055,0.219 0.05,-0.219 c 0.003,-0.006 0.005,-0.01 0.008,-0.013 a 0.023,0.023 0 0 1 0.012,-0.003 h 0.026 c 0.006,0 0.01,0.001 0.013,0.003 0.003,0.002 0.005,0.007 0.006,0.013 l 0.053,0.222 0.057,-0.22 a 0.028,0.028 0 0 1 0.007,-0.016 0.021,0.021 0 0 1 0.013,-0.002 h 0.03 c 0.006,0 0.008,0.003 0.008,0.008 v 0.006 a 0.047,0.047 0 0 1 -0.003,0.008 l -0.08,0.255 c 0,0.006 -0.003,0.01 -0.006,0.013 a 0.021,0.021 0 0 1 -0.012,0.003 H 0.584 c -0.007,0 -0.011,-0.001 -0.014,-0.003 -0.002,-0.003 -0.005,-0.007 -0.006,-0.014 l -0.05,-0.212 -0.052,0.212 c -0.002,0.007 -0.003,0.012 -0.006,0.013 -0.002,0.003 -0.006,0.004 -0.013,0.004 z m 0.423,0.009 a 0.217,0.217 0 0 1 -0.089,-0.02 c -0.005,-0.003 -0.009,-0.006 -0.01,-0.009 a 0.023,0.023 0 0 1 -0.002,-0.01 v -0.015 c 0,-0.007 0.002,-0.01 0.007,-0.01 H 0.75 a 0.179,0.179 0 0 0 0.084,0.019 c 0.02,0 0.037,-0.003 0.048,-0.01 a 0.036,0.036 0 0 0 0.017,-0.033 0.032,0.032 0 0 0 -0.009,-0.023 0.082,0.082 0 0 0 -0.033,-0.017 l -0.048,-0.015 a 0.1,0.1 0 0 1 -0.052,-0.033 0.079,0.079 0 0 1 0.016,-0.112 0.104,0.104 0 0 1 0.034,-0.016 0.143,0.143 0 0 1 0.063,-0.005 0.36,0.36 0 0 1 0.04,0.009 l 0.015,0.006 a 0.028,0.028 0 0 1 0.01,0.008 0.018,0.018 0 0 1 0.003,0.01 v 0.016 c -10e-4,0.007 -0.003,0.011 -0.008,0.011 a 0.034,0.034 0 0 1 -0.013,-0.004 0.15,0.15 0 0 0 -0.063,-0.013 0.085,0.085 0 0 0 -0.044,0.01 c -0.01,0.005 -0.015,0.014 -0.015,0.028 0,0.009 0.003,0.017 0.01,0.023 a 0.098,0.098 0 0 0 0.035,0.019 l 0.047,0.015 a 0.1,0.1 0 0 1 0.05,0.032 c 0.01,0.013 0.016,0.029 0.016,0.046 a 0.085,0.085 0 0 1 -0.009,0.038 0.089,0.089 0 0 1 -0.024,0.03 0.106,0.106 0 0 1 -0.036,0.018 0.156,0.156 0 0 1 -0.047,0.007 z"
     fill="#252f3e"
     id="path2" />
</svg>
