<?xml version="1.0" encoding="UTF-8" standalone="no"?>
<svg xmlns="http://www.w3.org/2000/svg" viewBox="0 0 36 30" width="36" height="30" <path
    d="M 36,8.5 C 36,3.942 31.565,0.233 26,0.021 V 0 H 9.9999997 V 0.021 C 4.435,0.233 0,3.942 0,8.5 c 0,1.861 0.747,3.576 2,4.976 V 26 c 0,2.209 1.791,4 4,4 h 24 c 2.209,0 4,-1.791 4,-4 V 13.476 c 1.253,-1.4 2,-3.115 2,-4.976 z"
    id="path32" inkscape:connector-curvature="0" style="fill:#d99e82" />
<path d="m 19,13.476 h 15 v 1.5 H 19 Z" id="path34" inkscape:connector-curvature="0" style="fill:#cc927a" />
<path
    d="M 21,8.5 C 21,5.039 17.462,2.209 13,2.011 12.835,2.004 10.668,2 10.5,2 5.806,2 2,4.91 2,8.5 c 0,1.595 0.754,3.053 2,4.184 V 25 c 0,1.657 1.343,3 3,3 h 9 c 1.657,0 3,-1.343 3,-3 V 12.679 c 1.244,-1.131 2,-2.586 2,-4.179 z"
    id="path36" inkscape:connector-curvature="0" style="fill:#ffe8b6" />
</svg>