<?xml version="1.0" encoding="UTF-8" standalone="no"?>
<svg
   xmlns:dc="http://purl.org/dc/elements/1.1/"
   xmlns:cc="http://creativecommons.org/ns#"
   xmlns:rdf="http://www.w3.org/1999/02/22-rdf-syntax-ns#"
   xmlns:svg="http://www.w3.org/2000/svg"
   xmlns="http://www.w3.org/2000/svg"
   xmlns:sodipodi="http://sodipodi.sourceforge.net/DTD/sodipodi-0.dtd"
   xmlns:inkscape="http://www.inkscape.org/namespaces/inkscape"
   viewBox="0 0 36 30"
   version="1.1"
   id="svg30"
   sodipodi:docname="bigBread.svg"
   width="36"
   height="30"
   inkscape:version="0.92.4 (5da689c313, 2019-01-14)">
  <metadata
     id="metadata36">
    <rdf:RDF>
      <cc:Work
         rdf:about="">
        <dc:format>image/svg+xml</dc:format>
        <dc:type
           rdf:resource="http://purl.org/dc/dcmitype/StillImage" />
        <dc:title></dc:title>
      </cc:Work>
    </rdf:RDF>
  </metadata>
  <defs
     id="defs34" />
  <sodipodi:namedview
     pagecolor="#ffffff"
     bordercolor="#666666"
     borderopacity="1"
     objecttolerance="10"
     gridtolerance="10"
     guidetolerance="10"
     inkscape:pageopacity="0"
     inkscape:pageshadow="2"
     inkscape:window-width="1855"
     inkscape:window-height="1057"
     id="namedview32"
     showgrid="false"
     fit-margin-top="0"
     fit-margin-left="0"
     fit-margin-right="0"
     fit-margin-bottom="0"
     inkscape:zoom="24.722222"
     inkscape:cx="18"
     inkscape:cy="17"
     inkscape:window-x="-8"
     inkscape:window-y="-8"
     inkscape:window-maximized="1"
     inkscape:current-layer="svg30" />
  <path
     d="M 36,8.5 C 36,3.942 31.565,0.233 26,0.021 V 0 H 10 V 0.021 C 4.435,0.233 0,3.942 0,8.5 c 0,1.861 0.747,3.576 2,4.976 V 26 c 0,2.209 1.791,4 4,4 h 24 c 2.209,0 4,-1.791 4,-4 V 13.476 c 1.253,-1.4 2,-3.115 2,-4.976 z"
     id="path24"
     inkscape:connector-curvature="0"
     style="fill:#d99e82" />
  <path
     d="m 19,13.476 h 15 v 1.5 H 19 Z"
     id="path26"
     inkscape:connector-curvature="0"
     style="fill:#cc927a" />
  <path
     d="M 21,8.5 C 21,5.039 17.462,2.209 13,2.011 12.835,2.004 10.668,2 10.5,2 5.806,2 2,4.91 2,8.5 c 0,1.595 0.754,3.053 2,4.184 V 25 c 0,1.657 1.343,3 3,3 h 9 c 1.657,0 3,-1.343 3,-3 V 12.679 c 1.244,-1.131 2,-2.586 2,-4.179 z"
     id="path28"
     inkscape:connector-curvature="0"
     style="fill:#ffe8b6" />
</svg>
