<svg width="5" height="10" fill="none" xmlns="http://www.w3.org/2000/svg">
    <path
        d="M.298 1.798C.26 1.764.22 1.732.192 1.687a.937.937 0 01-.134-.27c-.019-.063-.025-.131-.05-.192-.024-.044.005-.093.048-.107.02-.004.053-.024.012-.01-.036.03-.04-.027-.002-.03.025-.004.035-.028.026-.049-.027-.02.067-.042.02-.072C.061.897.18.886.151.954c-.008.052.082-.01.061.05.021.03.08.007.078.047.03.003.041.032.07.034.03.015.084.027.095.065-.03.026-.099-.055-.102.018.009.108.006.22.042.322.016.062.057.111.093.16a.417.417 0 00.264.155c.019-.016.052-.075.08-.05.002.028-.057.059-.002.056.032-.011.055.028.081-.007.025.032.102-.021.085.045-.024.017-.058.007-.082.03-.039-.021-.07.02-.113.015a.741.741 0 01-.145.013c-.08-.007-.161-.01-.237-.04a.46.46 0 01-.122-.07zm.068.032c.041.02.082.042.128.048.072.012.147.03.22.013-.033-.016-.067.007-.1-.012-.04.01-.081-.002-.122-.008-.045-.023-.094-.038-.137-.068-.053-.022.028.028.042.032.033.021-.037-.01-.046-.02-.028-.017-.032-.013-.003.004l.017.011zm-.08-.062c.04.016 0-.032-.018-.03-.009-.015-.032-.025-.015-.034-.03.011-.031-.043-.045-.036-.031-.01-.012-.05-.049-.074C.156 1.57.122 1.547.112 1.51.107 1.49.074 1.434.094 1.486c.017.05.048.093.073.136.02.04.043.083.079.109.012.013.023.033.04.037zM.17 1.624c.007.015.001-.006 0 0zm.165.164c.009-.005-.013-.006 0 0zm.022.009c-.003-.013-.01.007 0 0zm.027.013c.013-.014-.02-.01 0 0zm.047.029c.008-.013-.025-.005 0 0zm-.09-.07c.02-.015-.026 0 0 0zm.02.01c0-.007-.007.004 0 0zm.103.073c.017.012.097.026.047.005-.009.002-.093-.027-.047-.005zm-.163-.143c-.002-.007-.026-.008 0 0zm.048.032c.012-.01-.026-.008 0 0zm.04.028c.018-.008-.029-.008 0 0zm-.108-.084c.02.017.079.003.03-.01-.022-.013-.072-.022-.038.008l.008.002zm.135.093c.009-.016-.034-.009 0 0zm-.04-.037c.047.015-.04-.033-.012-.005l.006.003.005.002zm.082.054c.045 0-.041-.007 0 0zm-.194-.139c-.002-.01-.011.001 0 0zm.27.186c0-.017-.015.013 0 0zM.34 1.71c-.003-.01-.014 0 0 0zM.268 1.65c.026-.001-.035-.012 0 0zm-.086-.062c-.003-.014-.028-.025 0 0zm.226.16c-.002.002-.005-.006 0 0zm.14.097c0-.01-.007.004 0 0zm-.153-.11c.003-.013-.022-.004 0 0zM.291 1.66c.02-.002-.03-.015 0 0zm.177.123c.03-.013-.03-.006 0 0zm-.092-.07c.034.005-.041-.026-.008-.003l.008.003zm.12.083c.032-.022.021.05.054.006.033-.027-.028.033.012.005.03-.022.072.01.1.02.019 0 .038.02.058.007.038-.012-.075-.017-.046-.038-.035.012-.06-.013-.078-.039-.04-.01-.085-.033-.105-.072-.008-.014.012.002-.007-.022-.024-.023-.036-.05-.052-.08-.019-.01-.021-.044-.023 0 0-.028-.023-.047-.029-.039 0-.027.025-.013.008-.033-.004-.028-.016-.056-.02-.088-.006-.015.005-.04-.014-.005-.007.036-.008-.052.003-.026.014-.027-.005-.023-.006-.02.009-.022.006-.055-.003-.042.005-.025.008-.09-.007-.078.01-.025.017-.115-.022-.08a.152.152 0 00-.057.013c.041.025-.004.01-.02.005-.003.024-.02.013-.04.014.033.004-.016.037-.035.025-.025.013.021.046 0 .056.003.015-.037-.006-.034.03-.024-.011-.003.042.008.024.041.012.03.04.03.067-.007.016-.033-.037-.006-.034-.021-.039-.023-.014-.04.004-.005.001.044.025.013.037.027.005.028.032.034.048.016.02.013-.02.032.002-.012-.02-.065-.057-.022-.045 0-.02-.008-.037.005-.037.013-.026-.014.065.016.031.008-.004.01-.026.024.003.021.023.008.04-.022.018.005.02.04.028.033.06.007.027.017.017.025.015.006.027.01.008.01-.005.03.007.024.027.033.04.02.011-.03-.07.006-.024.038.038.014.054-.02.048.022-.002.029.032.055.03.025.014.04.063 0 .043-.015-.015-.067-.033-.025-.005.039.02.07.032.107.057.027.021.038.046.048.05-.022.013-.067-.009-.034-.015-.02-.005-.044-.016-.024.013.017.016.06.014.068.016-.007.016-.018.017 0 .019-.02.012.007.014.008.02zm.093-.036c.008 0 0 .007 0 0zM.24 1.417c-.006-.012-.017-.048-.014-.059.003.018.034.076.015.025-.02-.044.025.014.03.025.001.01-.014-.003-.003.022-.019-.029-.011.016-.028-.013zm-.069-.064c-.015-.017-.026-.033.001-.01.01 0-.023-.037.003-.012.027.005.013.05-.004.022zm.01-.026c-.046-.046.057.023.007.008l-.007-.008zm.13.084c-.02-.013-.006-.093 0-.038.02-.007 0 .028.014.028-.002.022-.009.03-.015.01zm-.121-.1c-.03-.044.084.046.018.012C.202 1.321.193 1.32.19 1.312zm.004-.016c.018-.004.072.034.022.01-.005-.006-.017-.003-.022-.01zm.013-.014c.007-.011-.019-.052.004-.014.01.008.028.014.012.018.025.025-.007.007-.016-.004zm-.015-.04c.006-.003.003.008 0 0zm.128.02c-.01-.018.011-.079.013-.041-.01.03-.002.045.004.006.012-.03-.002.061-.017.035zm.013-.09c.004-.006.001.006 0 0zm-.022.495c0 .004-.006-.005 0 0zm.046.027c.026.007.026-.005.002-.009-.012-.013-.052-.026-.016-.001.002.007.01.006.014.01zm-.091-.068c.014.011.053.033.02.004.011-.014-.021-.022-.01-.032C.247 1.578.253 1.58.272 1.58c-.033-.016.005-.015.003-.023-.013-.003-.063-.026-.034.001-.03-.017-.007.007-.016.004-.031-.009.027.027-.005.018.018.016.048.04.008.017-.006.008.028.021.037.028zm.048.03c.059.022-.029-.025 0 0zm.248.169c0-.013-.008.011 0 0zm.025.012c.014-.015 0 .023.023-.004 0-.02-.001-.03-.026-.007-.006.004-.01.022.003.01zM.183 1.55c-.004-.018-.029-.018 0 0zm.027.02c-.01-.018-.036-.017 0 0zm.155.105c.015.015.07.01.018.002-.007-.013-.048-.01-.018-.002zm.212.147c.024-.022-.022.01 0 0zm.049.037c0-.007-.01.003 0 0zm0-.01c.026-.03-.025.002 0 0zm-.51-.361c-.022-.035-.013-.051-.034-.08-.004-.022-.037-.071-.017-.019.018.031.023.079.051.099zm.502.352c.047-.035-.02-.015 0 0zm.036.016c.024-.023-.015-.005 0 0zm-.479-.344c.007-.012-.017-.002 0 0zm.471.333c.023-.017-.005-.014-.004.001l.004-.001zm-.311-.22c0-.012-.012 0 0 0zm.02.012c-.007-.014-.01.002 0 0zm.328.219c.03-.024-.018-.005-.006.004l.006-.004zM.672 1.85c.024-.023-.025.01 0 0zm.057.043c.016-.012-.02-.004 0 0zm-.54-.39c.022.006.087.06.049.004-.02-.006-.008-.06-.028-.05.014.025.011.035-.017.02-.035-.02-.02.01-.013.017-.01.003.013.01.01.01zm-.097-.086c.004-.018-.036-.099-.019-.04.006.011.006.034.019.04zm.18.124c0-.001-.011-.01 0 0zm.027.007c0-.019-.03-.007 0 0zm.237.168c-.004-.013-.018 0 0 0zm.011.009c-.001-.007-.006.001 0 0zm.094.066c.01-.007-.01 0 0 0zm-.5-.36c.026-.012-.028-.008 0 0zm.374.264c0-.019-.016.005 0 0zm-.384-.291c.016-.006-.016-.004 0 0zm.048.026c0-.006-.005.002 0 0zm.587.404c.021-.005.07.012.078-.007-.026 0-.09-.02-.093.005l.006.001h.009zm-.572-.4c0-.018-.013 0 0 0zm-.127-.098c-.005-.036-.022-.005 0 0zm.03.009c0-.012-.027-.01 0 0zm.018.009c-.004.006-.005-.005 0 0zm.108.078c.005-.005-.012-.004 0 0zm-.12-.1c-.003-.027-.035-.004 0 0zM.041 1.29c0-.013-.006.004 0 0zm.01-.008c-.002-.015-.008.002 0 0zm.05.034c.022-.01-.039-.02-.004-.002l.005.002zm.681.471c.014-.014-.017-.004 0 0zm.082.048c.006-.018-.014.002 0 0zm-.757-.549c.002-.018-.017.004 0 0zm-.073-.054c-.004-.025-.003-.07.034-.054-.05.01.035.069.024.023.02.001.04-.014.03.009.04-.005.07-.045.11-.04.03-.004.064-.008.097-.022.028-.002.054-.035.039-.055a.38.38 0 00-.118.011c-.046.011-.087.031-.133.04-.045.007.009.019-.004.021-.024.01.028.016-.003.025-.02-.004-.04-.011-.031-.034-.043.006-.081.026-.047.076h.002zm.104-.06c.01-.041.054.035.017.006C.15 1.174.143 1.17.138 1.172zm.002-.02c.015-.012.008.007 0 0zm.019 0c.001-.018.042.011.007.008l-.007-.007zm.025-.01c.01-.013.003.01 0 0zm.007-.006c.015-.02.087-.013.034-.002-.014-.011-.025.007-.034.002zm.093-.016c.047.02-.002-.056 0 0zm.027 0c.01-.028.038-.011.005-.006 0 .003-.001.015-.005.006zm-.215.152c.03-.02-.03-.018 0 0zm.022.007c.01-.012-.022-.005 0 0zm-.064-.051c.017-.015-.02-.006 0 0zm.859.602c0-.017-.013.007 0 0zm-.087-.067c.002-.02-.012.002 0 0zm.111.073c.023 0 .07-.008.02-.008-.008.002-.046.001-.02.008zm-.8-.57c.018-.001.029-.023-.004-.022-.051-.006.045.02-.006.013-.007.005.01.01.01.01zm.016.01c-.002-.014-.006.007 0 0zm.02-.059c.008-.011-.011-.003 0 0zM.11 1.099c.034-.013.08-.027.096.006-.016-.022-.007-.043.008-.011.022.032.033-.015.019-.026.016.023.034.033.01.002.026-.035-.05.004-.068.004-.008.004-.086.022-.065.025zm.02-.042c.02-.017.066.01.036-.016-.003-.003-.066.02-.036.016zm.07.003c.022 0-.01-.034.017-.018-.005-.016-.031-.02-.044-.026-.008.015.015.044.027.044zM.142.989c.008-.012-.013.006 0 0zm.029.008C.207.99.16.979.163.997h.008zM.117.95C.092.913.165.956.14.917.118.897.097.94.117.95zm.327.197c.011-.023-.049-.031-.008-.008.003.001.003.01.008.008z"
        fill="#000" />
</svg>