<svg xmlns="http://www.w3.org/2000/svg" width="1" height="1" fill="none">
    <path
        d="M.864 0h-.72a.09.09 0 00-.09.09v.82c0 .05.04.09.09.09h.72c.05 0 .09-.04.09-.09V.09A.09.09 0 00.865 0zm.04.91a.04.04 0 01-.04.04h-.72a.04.04 0 01-.04-.04V.09a.04.04 0 01.04-.04h.72a.04.04 0 01.04.04zM.28.85l.113-.1L.28.65zM.686.445A.164.164 0 00.566.4a.6.6 0 00-.188.035V.15h-.1v.432L.348.55S.463.498.564.498c.05 0 .062.027.062.052v.3h.1v-.3a.134.134 0 00-.04-.105zM.554.312h.1A.301.301 0 00.729.15h-.1a.369.369 0 01-.075.163z"
        fill="#430098" />
</svg>