<svg width="1" height="1" viewBox="0 0 1 1" fill="none" xmlns="http://www.w3.org/2000/svg">
    <g clip-path="url(#clip0_1_2)">
        <path
            d="M0.363185 0.773129C0.363185 0.773129 0.324747 0.796504 0.389904 0.803191C0.468341 0.813191 0.510122 0.811535 0.596935 0.794847C0.614383 0.805532 0.632835 0.814481 0.652029 0.821566C0.456716 0.905066 0.20956 0.816566 0.363185 0.773129ZM0.338185 0.664597C0.338185 0.664597 0.296435 0.696316 0.36156 0.703035C0.446716 0.711379 0.513498 0.713035 0.628748 0.689691C0.639956 0.701058 0.653679 0.709633 0.66881 0.714722C0.433373 0.784847 0.16956 0.721379 0.338185 0.664597ZM0.799029 0.85491C0.799029 0.85491 0.827404 0.878285 0.76731 0.89666C0.655435 0.930097 0.298122 0.940097 0.197935 0.89666C0.162872 0.88166 0.229654 0.859941 0.25106 0.856597C0.272779 0.851597 0.284497 0.851597 0.284497 0.851597C0.24606 0.824879 0.0290287 0.906691 0.17431 0.930035C0.573372 0.99516 0.90231 0.90166 0.798779 0.85491H0.799029ZM0.381247 0.551035C0.381247 0.551035 0.199247 0.594472 0.316122 0.609472C0.366216 0.61616 0.464716 0.614472 0.55656 0.607816C0.631685 0.601129 0.706873 0.587816 0.706873 0.587816C0.706873 0.587816 0.680154 0.599504 0.661779 0.611191C0.476466 0.659629 0.120779 0.63791 0.222654 0.587816C0.309466 0.546066 0.381279 0.551097 0.381279 0.551097L0.381247 0.551035ZM0.706873 0.733035C0.893873 0.63616 0.80706 0.542722 0.746935 0.554379C0.731935 0.557722 0.725216 0.561066 0.725216 0.561066C0.725216 0.561066 0.730216 0.551066 0.741904 0.547722C0.860466 0.505972 0.953966 0.672941 0.703466 0.738035C0.703466 0.738035 0.705122 0.736379 0.70681 0.733035H0.706873ZM0.399685 0.996847C0.579997 1.00853 0.855529 0.99016 0.862185 0.904972C0.862185 0.904972 0.848841 0.93841 0.713591 0.96341C0.559966 0.991785 0.369622 0.98841 0.257747 0.970097C0.257747 0.970097 0.281122 0.990129 0.399685 0.996847Z M0.593637 3.05176e-05C0.593637 3.05176e-05 0.697168 0.105218 0.495137 0.263843C0.333168 0.392405 0.458418 0.465874 0.495137 0.549374C0.39995 0.464218 0.331512 0.389062 0.378262 0.318968C0.4467 0.215406 0.635387 0.165624 0.593637 3.05176e-05ZM0.540512 0.479249C0.58895 0.534343 0.527168 0.584437 0.527168 0.584437C0.527168 0.584437 0.650731 0.520999 0.59395 0.442499C0.5422 0.367374 0.502075 0.330624 0.719168 0.205406C0.719168 0.205406 0.376887 0.290562 0.540512 0.479249Z"
            fill="#4E7896" />

    </g>
    <defs>
        <clipPath id="clip0_1_2">
            <rect width="1" height="1" fill="white" />
        </clipPath>
    </defs>
</svg>