<svg width="1" height="1" viewBox="0 0 1 1" fill="none" xmlns="http://www.w3.org/2000/svg">
<g clip-path="url(#clip0_322_10)">
<path d="M0.6375 0.875L0.363542 0.778125L0.177083 0.852083C0.165278 0.858333 0.153646 0.857986 0.142187 0.851042C0.130729 0.844097 0.125 0.833681 0.125 0.819792V0.238542C0.125 0.229514 0.127604 0.221528 0.132813 0.214583C0.138021 0.207639 0.144792 0.202431 0.153125 0.198958L0.363542 0.125L0.6375 0.220833L0.822917 0.146875C0.834722 0.141319 0.846354 0.14184 0.857813 0.148438C0.869271 0.155035 0.875 0.165278 0.875 0.179167V0.767708C0.875 0.775347 0.872396 0.781944 0.867188 0.7875C0.861979 0.793056 0.855556 0.797222 0.847917 0.8L0.6375 0.875ZM0.602083 0.796875V0.270833L0.397917 0.202083V0.728125L0.602083 0.796875ZM0.664583 0.796875L0.8125 0.747917V0.214583L0.664583 0.270833V0.796875ZM0.1875 0.784375L0.335417 0.728125V0.202083L0.1875 0.251042V0.784375Z" fill="black"/>
</g>
<defs>
<clipPath id="clip0_322_10">
<rect width="1" height="1" fill="white"/>
</clipPath>
</defs>
</svg>
