<?xml version="1.0" encoding="utf-8"?>
<svg viewBox="17.996 254.7 134.135 123.9" xmlns="http://www.w3.org/2000/svg">
  <defs/>
  <path d="M150.6 356.2c.7-1.1 1.2-2.2 1.4-3.5.2-1.2.2-2.5-.2-3.7-.5-1.8-1.4-3.2-2.7-4.3.6-1 1-2.2 1.2-3.4.4-2.6-.5-5.2-2.4-7.3-1.5-1.6-3.6-2.5-6-2.5h-.8c1.8-5.7 2.7-11.7 2.7-17.7 0-32.6-26.4-59.1-59.1-59.1s-59.1 26.4-59.1 59.1c0 6 .9 11.9 2.7 17.6h-.1c-2.4 0-4.5.9-6 2.5-1.9 2.1-2.8 4.7-2.4 7.3.2 1.2.6 2.3 1.2 3.4-1.3 1.1-2.3 2.5-2.7 4.3-.3 1.2-.4 2.5-.2 3.7.2 1.2.7 2.4 1.4 3.5l-.3.6c-1.2 2.2-1.2 4.7-.2 7.1 1.6 3.5 5.4 6.3 13 9.3 4.7 1.9 9 3 9 3.1 6.2 1.6 11.8 2.4 16.7 2.4 8 0 13.9-2.2 17.7-6.5 6.4 1 13 1 19.4-.1 3.8 4.4 9.8 6.6 17.8 6.6 4.9 0 10.5-.8 16.7-2.4 0 0 4.3-1.2 9-3.1 7.5-3 11.4-5.8 13-9.3 1-2.3 1-4.8-.2-7.1-.3-.1-.4-.3-.5-.5zm-78.1 9.2c-.3.6-.7 1.1-1.1 1.7-1 1.4-2.3 2.5-3.8 3.4-2.9 1.6-6.5 2.1-10.2 2.1-5.8 0-11.8-1.4-15.1-2.2-.2 0-20.5-5.8-17.9-10.7.4-.8 1.1-1.2 2-1.2 3.6 0 10.2 5.4 13.1 5.4.6 0 1.1-.3 1.3-.9 1.2-4.3-18.4-6.2-16.7-12.4.3-1.1 1.1-1.6 2.2-1.6 4.8 0 15.5 8.4 17.8 8.4.2 0 .3-.1.4-.2 1.1-1.7.5-3-6.8-7.4l-.7-.4c-8-4.8-13.5-7.7-10.4-11.2.4-.4.9-.6 1.5-.6.7 0 1.7.3 2.6.7 4.2 1.8 10 6.6 12.5 8.7.7.6 1.1 1 1.1 1s3.1 3.2 4.9 3.2c.4 0 .8-.2 1-.6 1.3-2.2-12.3-12.5-13-16.8-.5-2.9.4-4.3 2-4.3.8 0 1.7.3 2.8 1 3.2 2.1 9.5 12.8 11.8 17 .8 1.4 2.1 2 3.3 2 2.4 0 4.2-2.3.2-5.3-6-4.5-3.9-11.8-1-12.2h.4c2.6 0 3.7 4.5 3.7 4.5s3.3 8.4 9.1 14.2c5.4 5.1 6.1 9.4 3 14.7zm18.7 1h-.3l-.5.1c-.3 0-.5.1-.8.1h-8.2c-.3 0-.5 0-.8-.1h-1c-.2 0-.4 0-.7-.1 3.2-7.1 1.6-13.8-4.9-20.2-4.2-4.2-7-10.5-7.6-11.8-1.2-4.1-4.3-8.6-9.5-8.6-.4 0-.9 0-1.3.1-2.3.4-4.3 1.7-5.7 3.6-1.5-1.9-3-3.4-4.4-4.3-2-1.3-4.1-1.9-6-1.9-2.5 0-4.7 1-6.2 2.9l-.1-.4c-.3-1.3-.5-2.5-.7-3.8v-.3c0-.2 0-.3-.1-.5 0-.1 0-.3-.1-.4 0-.1 0-.3-.1-.4v-.4-.4c-.1-.6-.1-1.1-.2-1.7v-.3-.3-.5-.4-1.4-.6-.3-.3c0-29.2 23.7-53 53-53s53 23.7 53 53v3.3c0 .7-.1 1.3-.2 2v.4c0 .3-.1.6-.1.8v1c0 .1 0 .3-.1.4v.3l-.1.4c0 .1 0 .2-.1.4 0 .1 0 .2-.1.4 0 .2-.1.5-.1.7-.1.5-.2 1-.3 1.4 0 .1-.1.2-.1.4-1.5-1.4-3.5-2.2-5.6-2.2-2 0-4 .7-6 1.9-1.3.9-2.8 2.4-4.4 4.3-1.4-2-3.4-3.3-5.7-3.6-.4-.1-.9-.1-1.3-.1-5.2 0-8.3 4.5-9.5 8.6-.6 1.4-3.4 7.6-7.6 11.8-7.1 6.3-8.7 12.9-5.5 20zm54.6-14.3c0 .1-.1.1-.1.2s-.1.1-.1.2c-.1.1-.1.3-.2.4-.1.2-.2.3-.4.5l-.1.1c0 .1-.1.1-.2.2-.9.9-2.4 1.7-4 2.5-.2.1-.4.2-.6.2l-.2.1c-.1.1-.2.1-.4.2-.1.1-.3.1-.4.2l-.4.2c-.9.4-1.8.7-2.8 1.1l-.4.2-.4.2c-.3.1-.5.2-.8.3l-.4.1-.4.1-.2.1c-.1.1-.2.1-.4.1-2.7 1.2-4.6 2.3-4.2 3.8v.1c0 .1.1.2.1.3 0 .1.1.1.1.2.5.5 1.3.4 2.4 0 .1 0 .2-.1.3-.1.1 0 .1 0 .2-.1h.1c.3-.1.5-.2.8-.4.1 0 .1-.1.2-.1 1.3-.7 2.9-1.5 4.4-2.3.2-.1.5-.2.7-.4.4-.2.8-.4 1.1-.6 1.4-.7 2.8-1.1 3.8-1.1.5 0 1 .1 1.3.3h.1c.2.1.4.3.5.5l.1.1.1.1c.5 1 .1 2.1-1 3.1-1 1-2.6 1.9-4.3 2.8-.1.1-.3.1-.4.2-5.3 2.6-12.2 4.5-12.2 4.6-1.8.5-4.5 1.1-7.4 1.6l-.4.1h-.1c-.7.1-1.3.2-2 .3h-.1c-1.2.1-2.5.2-3.7.3h-1.9c-.7 0-1.4 0-2.1-.1-.2 0-.5 0-.7-.1-.4 0-.8-.1-1.3-.2-.2 0-.3-.1-.5-.1h-.2c-.2 0-.5-.1-.7-.2-.1 0-.3-.1-.4-.1h-.1c-.1 0-.1 0-.2-.1l-.2-.1c-.1 0-.2 0-.2-.1l-.2-.1c-.1 0-.2 0-.2-.1-.1 0-.1 0-.2-.1h-.1c-.1 0-.3-.1-.4-.1h-.2l-.6-.3-.1-.1s-.1 0-.1-.1c-.1 0-.2-.1-.3-.1l-.1-.1c-.2-.1-.5-.2-.7-.4l-.1-.1c-.1 0-.1-.1-.2-.1l-.2-.1c-.1 0-.1-.1-.2-.1l-.1-.1c-.1-.1-.2-.2-.3-.2-.1 0-.1-.1-.2-.1-.1-.1-.2-.2-.4-.3l-.3-.3-.2-.2-.2-.2-.2-.2c-.1-.1-.1-.1-.1-.2-.3-.3-.5-.6-.7-.9l-.1-.1c-.1-.1-.1-.2-.2-.3l-.2-.3c-.1-.1-.2-.2-.2-.4-.1-.1-.1-.2-.2-.3 0-.1-.1-.2-.1-.2s0-.1-.1-.1l-.1-.1v-.1c0-.1-.1-.2-.1-.3 0 0 0-.1-.1-.1l-.1-.1-.1-.1-.1-.2s0-.1-.1-.1c0-.1-.1-.2-.1-.3v-.1c-.1-.1-.1-.2-.2-.4 0-.1-.1-.2-.1-.2-.1-.2-.2-.5-.3-.7 0-.1 0-.1-.1-.2-.1-.2-.1-.3-.1-.5s-.1-.4-.1-.6c0-.1 0-.2-.1-.3v-.3c0-.2 0-.4-.1-.7v-.1-.2c0-3 1.5-5.9 4.7-9.1 5.8-5.7 9.1-14.2 9.1-14.2s.1-.4.3-.9c.1-.2.1-.3.2-.5l.3-.6v-.1c.1-.2.2-.5.4-.7 0-.1.1-.1.1-.2.1-.2.2-.3.3-.4l.3-.3c.3-.3.7-.6 1.1-.8h1.1c.5.1 1 .4 1.4.9l.1.1c.1.2.3.3.4.5.1.1.2.3.2.4 0 .1.1.1.1.2v.1c0 .1.1.1.1.2.1.4.3.8.3 1.2.1.4.1.9.1 1.3v.8c-.1.8-.2 1.6-.5 2.4 0 .1-.1.2-.1.2-.2.4-.3.7-.5 1-.1.2-.2.4-.4.6l-.1.1c-.3.4-.7.8-1 1.2-.4.4-.8.7-1.2 1-.4.3-.8.7-1.2 1-1.1 1.1-1.3 2.1-1.1 2.8 0 .1.1.2.1.2.1.2.2.3.3.5l.1.1c.1.1.2.1.3.2 0 0 .1 0 .1.1.2.1.3.1.5.2H112.8c.3 0 .6-.1.9-.3.1 0 .1-.1.2-.1.1-.1.2-.1.4-.2s.3-.2.5-.4l.1-.1.3-.3c.1-.2.3-.4.4-.6 1.4-2.5 2.8-4.9 4.3-7.3l.2-.3.2-.3c.1-.2.2-.3.3-.5l.1-.2.2-.3c.3-.4.6-.9.9-1.3l.2-.3c.4-.6.9-1.2 1.3-1.8l.2-.3c.5-.6.9-1.3 1.4-1.9l.2-.2.1-.1.2-.2.1-.1.2-.2.1-.1.3-.3.2-.2c.4-.4.7-.7 1.2-1l.1-.1.1-.1c.1 0 .1-.1.2-.1 1.7-.9 3-1 3.8-.2.5.5.7 1.3.7 2.4V333.4c0 .1 0 .2-.1.3-.1.2-.1.4-.2.5 0 .1-.1.1-.1.2-.1.2-.2.3-.3.5 0 .1-.1.2-.1.2l-.1.1c-.1.1-.2.3-.2.4s-.2.3-.3.4c-.1.2-.3.4-.4.5l-.1.1c-.3.4-.6.8-.9 1.1l-.3.3-.1.1c-.2.2-.4.4-.5.6l-.1.1-.3.3-.3.3-.3.3-.3.3-.3.3-.6.6c-2.8 2.9-5.8 5.8-6.8 7.6-.1.1-.1.2-.2.4-.1.3-.2.6-.2.8 0 .1 0 .1.1.2s.1.2.2.3l.1.1c.2.1.5.2.7.2H121.2c.1 0 .1 0 .2-.1.1 0 .3-.1.4-.2h.2c.1-.1.2-.1.4-.2.1-.1.2-.1.3-.2l.1-.1s.1 0 .1-.1l.1-.1.1-.1c.1-.1.2-.2.4-.3l.2-.1c.3-.2.5-.4.7-.6l.1-.1.1-.1c.2-.2.3-.3.5-.4l.1-.1.1-.1.1-.1.1-.1.1-.1.1-.1.1-.1.1-.1h.1l.1-.1.1-.1.1-.1c.3-.3.7-.6 1.1-.9l.2-.1.3-.2.3-.2c.4-.3.8-.7 1.2-1l.3-.2c.2-.2.5-.4.8-.6.1-.1.2-.2.3-.2.3-.2.5-.4.8-.6.6-.5 1.2-.9 1.8-1.3l.3-.2c.2-.1.4-.3.6-.4l.2-.1c.3-.2.7-.4 1-.7l.2-.1.2-.1c.2-.1.3-.2.5-.3l.2-.1.3-.2c.1-.1.2-.1.3-.2h.1l.3-.1c.1-.1.2-.1.3-.2l.2-.1.2-.1c.4-.2.7-.3 1.1-.5.1 0 .1 0 .1-.1.1 0 .2-.1.3-.1.1 0 .2-.1.3-.1.1 0 .2-.1.3-.1h.1c.1 0 .2 0 .3-.1.1 0 .3-.1.4-.1H142.6c.3.1.5.2.7.4.3.3.5.6.7 1v.1c.1.1.1.3.1.4.1.4.1.8-.1 1.2-.1.2-.1.3-.2.5l-.1.1c-.2.4-.5.7-.8 1l-.1.1-.4.4-.1.1-.1.1c-.2.1-.3.3-.5.4 0 0-.1 0-.1.1l-.3.3c-.4.3-.8.6-1.3.9-.3.2-.5.3-.8.5-.5.3-1 .6-1.5 1-.1.1-.3.2-.4.3-1.4.8-2.9 1.7-4.5 2.7l-.4.3c-.5.3-.9.5-1.3.8l-.2.1-.4.3c-.2.1-.3.2-.5.3-.1.1-.2.1-.3.2l-.2.1c-.1.1-.2.1-.3.2l-.1.1c-.1.1-.2.1-.3.2l-.2.1-.2.1-.2.1c-.3.2-.5.4-.8.6l-.1.1c-.1.1-.2.2-.3.2l-.1.1c-.2.2-.4.3-.6.5l-.1.1-.1.1-.1.1-.3.3v.1l-.3.3v.1c-.1.1-.2.3-.2.4v.2c0 .1 0 .2-.1.3v.7c0 .1 0 .2.1.2v.1c0 .1.1.2.1.2V356.9h.1c.4.1 1.2-.2 2.3-.8l.2-.1.3-.2.2-.1c.1-.1.2-.1.4-.2l.2-.1c1.5-.8 3.2-1.9 5-3 .2-.1.3-.2.5-.3l.3-.2c.2-.1.3-.2.5-.3.7-.4 1.5-.8 2.2-1.2l.3-.2c.2-.1.4-.2.7-.3.4-.2.8-.4 1.3-.6l.2-.1c1.2-.5 2.4-.8 3.3-.8h.8c.1 0 .2 0 .2.1.1 0 .1.1.2.1.3.1.5.3.6.6v.1c.1.1.1.2.2.3 0 .1 0 .1.1.2 0 .1 0 .1.1.2.5 1 .5 1.6.3 2.1z" fill="#ff9d00"/>
  <path d="M137.6 314.2v-.3c0-29.2-23.7-53-53-53-29.2 0-53 23.7-53 53v4.3c0 .5.1 1 .1 1.5v.8c0 .3.1.5.1.8 0 .2 0 .3.1.5.1.4.1.7.2 1.1l.6 3v.1c0 .1 0 .2.1.3 1.5-1.8 3.7-2.9 6.2-2.9 2 0 4 .7 6 1.9 1.3.9 2.8 2.4 4.4 4.3 1.4-2 3.4-3.3 5.7-3.6.4-.1.9-.1 1.3-.1 5.2 0 8.3 4.5 9.5 8.6.6 1.4 3.4 7.6 7.6 11.8 6.5 6.4 8.1 13.1 4.9 20.2.2 0 .4 0 .7.1h1c.3 0 .5 0 .8.1H89c.3 0 .5-.1.8-.1.2 0 .3 0 .5-.1h.3c-3.1-7.1-1.5-13.7 4.9-20.1 4.2-4.2 7.1-10.5 7.6-11.8 1.2-4.1 4.3-8.6 9.5-8.6.4 0 .9 0 1.3.1 2.3.4 4.3 1.7 5.7 3.6 1.5-1.9 3-3.4 4.4-4.3 2-1.3 4.1-1.9 6-1.9 2.2 0 4.2.8 5.6 2.2.1-.4.2-.7.2-1.1 0-.2.1-.5.1-.7.1-.3.1-.6.2-.8v-.2c0-.1 0-.2.1-.4v-.6c0-.1 0-.3.1-.4v-1c0-.2 0-.4.1-.6V319.6v-.7c.1-.6.1-1.3.1-1.9v-.7-.5-.2V315.3 315v-.8zm-66.1 52.9c4.2-6.2 3.9-10.8-1.9-16.5-5.8-5.8-9.1-14.2-9.1-14.2s-1.3-4.9-4.1-4.4c-2.9.4-4.9 7.7 1 12.2 6 4.5-1.2 7.5-3.5 3.3s-8.6-15-11.8-17c-3.3-2.1-5.5-.9-4.8 3.3.4 2.1 3.9 5.7 7.2 9.1 3.4 3.4 6.5 6.6 5.8 7.7-1.3 2.2-6-2.6-6-2.6s-14.6-13.3-17.8-9.8c-2.9 3.2 1.6 5.9 8.5 10.1.6.4 1.2.7 1.8 1.1 8 4.8 8.6 6.1 7.4 7.9-.4.7-3.1-.9-6.4-2.9-5.6-3.4-13-7.8-14-3.8-.9 3.4 4.5 5.5 9.4 7.4 4.1 1.6 7.8 3 7.3 5-.6 2-3.7.3-7-1.5-3.8-2.1-8-4.4-9.3-1.8-2.6 4.9 17.8 10.6 17.9 10.7 6.9 1.6 23.6 5.2 29.4-3.3zm27 0c-4.2-6.2-3.9-10.8 1.9-16.5 5.8-5.8 9.1-14.2 9.1-14.2s1.2-4.9 4.1-4.4c2.9.4 4.9 7.7-1 12.2-6 4.5 1.2 7.5 3.5 3.3s8.6-15 11.8-17c3.3-2.1 5.5-.9 4.8 3.3-.4 2.1-3.9 5.7-7.2 9.1-3.4 3.4-6.5 6.6-5.8 7.7 1.3 2.2 6-2.6 6-2.6s14.6-13.3 17.8-9.8c2.9 3.2-1.6 5.9-8.5 10.1-.6.4-1.2.7-1.8 1.1-8 4.8-8.6 6.1-7.4 7.9.4.7 3.1-.9 6.4-2.9 5.6-3.4 13-7.8 14-3.8.9 3.4-4.5 5.5-9.4 7.4-4.1 1.6-7.8 3-7.3 5 .6 2 3.7.3 7-1.5 3.8-2.1 8-4.4 9.3-1.8 2.6 4.9-17.8 10.6-17.9 10.7-6.9 1.6-23.6 5.2-29.4-3.3z" fill="#ffd21e"/>
  <path d="M101.8 299.4c.8.3 1.4 1.2 2 2 .8 1.1 1.5 2.2 2.7 1.6 1.3-.7 2.4-1.8 3.1-3.1.7-1.3 1-2.8.9-4.3-.1-1.1-.5-2.2-1-3.2-.6-1-1.4-1.8-2.3-2.4-.9-.6-2-1-3.1-1.2-1.1-.2-2.3-.1-3.3.2-1.4.4-2.7 1.3-3.7 2.4-1 1.2-1.6 2.6-1.7 4.1-.2 1.5.1 3 .9 4.3.5 1 1.7.5 2.9 0 .9-.3 1.9-.7 2.6-.4zm-35.9 0c-.8.3-1.4 1.2-2 2-.8 1.1-1.5 2.2-2.7 1.6-1-.5-1.9-1.3-2.5-2.2-.7-.9-1.1-1.9-1.4-3-.2-1.1-.2-2.2.1-3.3.3-1.1.8-2.1 1.5-3 .7-.9 1.6-1.6 2.6-2.1s2.1-.7 3.3-.7c1.1 0 2.2.2 3.3.7 1 .5 1.9 1.2 2.6 2 1 1.2 1.6 2.6 1.7 4.1.2 1.5-.1 3-.9 4.3-.5 1-1.7.5-2.9 0-.9-.3-1.9-.7-2.7-.4zm30.4 32.7c5.7-4.5 7.8-11.8 7.8-16.3 0-3.6-2.4-2.4-6.2-.5l-.2.1c-3.5 1.7-8.2 4.1-13.4 4.1-5.1 0-9.8-2.3-13.4-4.1-4-2-6.4-3.2-6.4.4 0 4.7 2.2 12.3 8.3 16.7.8-1.6 1.9-3.1 3.3-4.3 1.4-1.2 3-2.1 4.8-2.6.6-.2 1.2.9 1.9 1.9.6 1 1.3 2.1 1.9 2.1.7 0 1.4-1 2-2.1.7-1.1 1.4-2.1 2-1.9 3.2 1.2 6 3.5 7.6 6.5z" fill="#32343d"/>
  <path d="M96.3 332.1c-3 2.3-6.9 3.9-12 3.9-4.8 0-8.6-1.4-11.5-3.5.8-1.6 1.9-3.1 3.3-4.3 1.4-1.2 3-2.1 4.8-2.6 1.2-.4 2.5 4 3.8 4 1.4 0 2.8-4.4 4-4 3.2 1.2 6 3.5 7.6 6.5z" fill="#ff323d"/>
  <path d="M52.3 305.7c-.5.4-1.1.6-1.8.7-.6.1-1.3.1-1.9 0-.6-.1-1.2-.4-1.8-.7-.5-.4-1-.8-1.4-1.4-.4-.5-.6-1.2-.7-1.8-.1-.6-.1-1.3 0-1.9.1-.6.4-1.2.7-1.8.4-.5.8-1 1.4-1.4 1.1-.7 2.4-1 3.7-.7s2.4 1 3.1 2.1c.7 1.1 1 2.4.7 3.7-.1 1.4-.9 2.5-2 3.2zm70.9 0c-.5.4-1.1.6-1.8.7-.6.1-1.3.1-1.9 0-.6-.1-1.2-.4-1.8-.7-.5-.4-1-.8-1.4-1.4-.4-.5-.6-1.2-.7-1.8-.1-.6-.1-1.3 0-1.9.1-.6.4-1.2.7-1.8.4-.5.8-1 1.4-1.4 1.1-.7 2.4-1 3.7-.7 1.3.3 2.4 1 3.1 2.1.7 1.1 1 2.4.7 3.7-.2 1.4-.9 2.5-2 3.2z" fill="#ffad03"/>
</svg>