<svg height="232.205" width="239.381" xmlns="http://www.w3.org/2000/svg">
    <path
        d="M132.851 178.343c0 29.746-24.112 53.862-53.858 53.862-29.75 0-53.863-24.116-53.863-53.862 0-29.747 24.112-53.863 53.863-53.863 29.746 0 53.858 24.116 53.858 53.863"
        fill="#f60" />
    <path
        d="M239.381 102.933c0 29.742-24.112 53.862-53.858 53.862-29.75 0-53.863-24.12-53.863-53.862 0-29.747 24.112-53.867 53.863-53.867 29.746 0 53.858 24.12 53.858 53.867"
        fill="#fc0" />
    <path
        d="M107.721 101.743c0 29.742-24.112 53.862-53.862 53.862C24.116 155.605 0 131.485 0 101.743c0-29.747 24.116-53.867 53.859-53.867 29.75 0 53.862 24.12 53.862 53.867"
        fill="#0089cc" />
    <path
        d="M215.441 178.343c0 29.746-24.112 53.862-53.866 53.862-29.743 0-53.859-24.116-53.859-53.862 0-29.747 24.116-53.863 53.859-53.863 29.754 0 53.866 24.116 53.866 53.863"
        fill="#009939" />
    <path
        d="M173.551 53.863c0 29.746-24.116 53.862-53.862 53.862-29.747 0-53.863-24.116-53.863-53.862C65.826 24.116 89.942 0 119.69 0c29.746 0 53.862 24.116 53.862 53.863"
        fill="#bf0000" />
    <path
        d="M131.661 102.933c0 1.133.1 2.242.17 3.36 23.891-5.512 41.722-26.872 41.722-52.438 0-1.133-.099-2.246-.17-3.364-23.891 5.516-41.722 26.876-41.722 52.442"
        fill="#fc0007" />
    <path
        d="M138.771 129.603c9.283 16.227 26.727 27.192 46.76 27.192 8.165 0 15.876-1.872 22.813-5.125-9.278-16.228-26.722-27.192-46.76-27.192-8.164 0-15.875 1.871-22.813 5.125"
        fill="#1cd306" />
    <path
        d="M107.721 178.343c0 13.16 4.73 25.202 12.572 34.555 7.833-9.353 12.563-21.396 12.563-34.555 0-13.16-4.73-25.202-12.563-34.556-7.841 9.354-12.572 21.396-12.572 34.556"
        fill="#0f7504" />
    <path
        d="M32.531 151.193a53.611 53.611 0 0021.325 4.41c19.836 0 37.118-10.751 46.468-26.714a53.623 53.623 0 00-21.325-4.407c-19.836 0-37.122 10.752-46.468 26.71"
        fill="#0c5e87" />
    <path
        d="M66.061 49.313c-.126 1.5-.232 3.008-.232 4.544 0 25.546 17.802 46.886 41.666 52.422.122-1.5.229-3.009.229-4.54 0-25.546-17.799-46.895-41.663-52.426"
        fill="#6b0001" />
    <path
        d="M71.091 171.673h-8.425c-7.439 0-13.488-6.03-13.488-13.448V81.959c0-7.418 6.05-13.451 13.488-13.451h105.652c7.439 0 13.484 6.033 13.484 13.451v76.266c0 7.419-6.045 13.448-13.484 13.448h-35.992l-72.215 35.4z"
        fill="#fff" />
</svg>