<svg width="64" height="64" aria-labelledby="css-logo-title css-logo-description" xmlns="http://www.w3.org/2000/svg"><path fill="#639"
        d="M0 0h53.76A10.24 10.24 0 0164 10.24v43.52A10.24 10.24 0 0153.76 64H10.24A10.24 10.24 0 010 53.76z" /><path fill="#fff"
        d="M52.259 58.874c-2.073 0-3.659-.603-4.768-1.815-1.098-1.218-1.67-2.955-1.72-5.225h4.466c.026 2.007.731 3.013 2.118 3.013.706 0 1.207-.224 1.495-.667.282-.441.43-1.147.43-2.115 0-.769-.192-1.41-.565-1.917a4.685 4.685 0 00-1.887-1.352L50.173 48c-1.476-.705-2.548-1.539-3.21-2.513-.641-.969-.962-2.327-.962-4.064 0-1.943.565-3.52 1.688-4.732 1.155-1.212 2.728-1.814 4.736-1.814 1.94 0 3.44.596 4.5 1.782 1.078 1.193 1.642 2.897 1.687 5.129h-4.3a4.622 4.622 0 00-.43-2.116c-.243-.487-.718-.73-1.424-.73-1.258 0-1.887.749-1.887 2.243 0 .757.153 1.346.462 1.795a4.172 4.172 0 001.624 1.116l1.585.699c1.636.75 2.817 1.667 3.542 2.776.732 1.103 1.092 2.577 1.092 4.424 0 2.212-.578 3.91-1.753 5.096-1.168 1.186-2.791 1.783-4.864 1.783zm-14.427 0c-2.074 0-3.659-.603-4.769-1.815-1.098-1.218-1.668-2.955-1.72-5.225h4.467c.026 2.007.731 3.013 2.118 3.013.706 0 1.206-.224 1.488-.667.29-.441.43-1.147.43-2.115 0-.769-.185-1.41-.558-1.917a4.685 4.685 0 00-1.886-1.352L35.746 48c-1.477-.705-2.548-1.539-3.209-2.513-.642-.969-.963-2.327-.963-4.064 0-1.943.565-3.52 1.688-4.732 1.155-1.212 2.728-1.814 4.736-1.814 1.939 0 3.44.596 4.493 1.782 1.091 1.193 1.65 2.897 1.694 5.129h-4.3a4.622 4.622 0 00-.43-2.116c-.243-.487-.718-.73-1.424-.73-1.259 0-1.888.749-1.888 2.243 0 .757.155 1.346.462 1.795a4.172 4.172 0 001.624 1.116l1.585.699c1.637.75 2.818 1.667 3.543 2.776.726 1.103 1.091 2.577 1.091 4.424 0 2.212-.584 3.91-1.752 5.096-1.168 1.186-2.791 1.783-4.864 1.783zm-15.024 0c-2.03 0-3.64-.552-4.833-1.655-1.194-1.095-1.784-2.743-1.784-4.923v-10.77c0-2.167.629-3.809 1.886-4.937 1.278-1.116 2.953-1.68 5.026-1.68 2.009 0 3.593.577 4.768 1.718 1.188 1.148 1.784 2.853 1.784 5.13v.852h-4.73v-.827c0-.878-.192-1.526-.565-1.949a1.693 1.693 0 00-1.386-.66c-.77 0-1.315.262-1.624.794a5.059 5.059 0 00-.43 2.347v9.36c0 1.955.688 2.95 2.055 2.969.641 0 1.122-.231 1.456-.693a3.311 3.311 0 00.494-1.95v-.698h4.73v.731c0 1.52-.295 2.789-.892 3.802a5.683 5.683 0 01-2.445 2.282 7.773 7.773 0 01-3.51.757z" />
</svg>