<?xml version="1.0" encoding="utf-8"?>
<svg viewBox="0 0 83.1 109.5" xmlns="http://www.w3.org/2000/svg">
    <defs>
        <style>
            .st0 {
                fill: #007d43
            }

            .st1 {
                fill: #fff1c0
            }

            .st2 {
                fill: #fff
            }

            .st3 {
                fill: #49965f
            }

            .st4 {
                fill: #05894f
            }

            .st5 {
                fill: #3d925a
            }

            .st6 {
                fill: #7dab76
            }

            .st7 {
                fill: #ffdc09
            }

            .st8 {
                fill: #ffeb98
            }
        </style>
    </defs>
    <path class="st0"
        d="M 41.5 109.5 L 40.7 109.2 C 40.2 109 28 104.8 16 94.5 C 1.6 82 0 63.1 0 55.5 L 0 8.8 L 1.4 8.1 C 12.8 2.6 25.6 0 41.5 0 C 57.5 0 70.2 2.6 81.7 8.2 L 83.1 8.9 L 83.1 55.6 C 83.1 63.1 81.5 82 67 94.6 C 55 104.9 42.8 109.2 42.3 109.3 L 41.5 109.5 Z" />
    <path class="st1"
        d="M41.5 4.8c-14.6 0-26.3 2.2-36.7 7v30.5c4.3-2.5 7.9-5.5 10.6-8.6 3.2 3.7 7.7 7.2 13 10 5.4-2.8 9.8-6.2 13-10 3.2 3.7 7.7 7.2 13 10 5.4-2.8 9.8-6.2 13-10 2.7 3.2 6.3 6.1 10.6 8.6V11.9C67.8 7.1 56.1 4.8 41.5 4.8zm18.6 24.4c-4.2 0-7.1-.6-11.2-1.5-.7-.2-1.5-.2-2.2-.2-1.6 0-3 .4-4.2.9-.3.2-.7.3-1 .5-.3-.2-.6-.4-1-.5-1.2-.5-2.6-.9-4.2-.9-.7 0-1.4.1-2.2.2-4.1.9-7.1 1.5-11.2 1.5h-1.8l1.3-14c.7 0 1.3 0 1.9.1l.3-4.4 1.3.1h1.4c1.5 0 2.7-.1 4.1-.4.9-.2 1.8-.4 2.8-.7.5-.1 1-.3 1.5-.4 1.8-.4 3.5-.2 5 .7.3.2.6.4.8.6l.9-.6c1.5-.9 3.3-1.1 5-.7.6.1 1.1.2 1.6.3 1 .3 1.9.5 2.7.7 1.9.4 3.5.5 5.5.4l1.3-.1.3 4.4c.6 0 1.2 0 1.9-.1l1.3 14c-.7.1-1.3.1-1.9.1z" />
    <path class="st2"
        d="M35.2 23.7h-.1c-3.4.9-5.7 1.4-8.9 1.4l.9-11.6c1.7 0 3.2-.1 4.9-.5.9-.2 1.9-.4 2.9-.7.5-.1.9-.3 1.5-.4 1.1-.3 2.2-.1 3.1.4.4.2.6.4.8.6v10.9c-1.7-.5-3.5-.6-5.1-.1zM47.9 23.7c-1.7-.4-3.4-.4-5.1.2v-11c.2-.2.5-.4.8-.6.9-.5 2-.7 3.1-.4.5.1 1 .3 1.5.4 1 .3 1.9.5 2.9.7 1.6.3 3 .5 4.7.5h.2l.9 11.6c-3.3 0-5.5-.6-9-1.4z" />
    <path class="st3"
        d="M41.6 48.5c4.8-1.1 9.1-2.7 13-4.7-5.4-2.8-9.8-6.2-13-10-3.2 3.7-7.7 7.2-13.1 10 3.9 2 8.3 3.6 13.1 4.7z" />
    <path class="st4"
        d="M15.5 48.4c4.1.9 8.5 1.5 13.1 1.5s8.9-.5 13-1.4c-4.8-1.1-9.1-2.7-13-4.7-4 2-8.4 3.6-13.1 4.6z" />
    <path class="st4"
        d="M41.5 48.5c4.1.9 8.4 1.4 13 1.4s9-.5 13.1-1.5c-4.8-1.1-9.1-2.7-13-4.7-3.9 2.1-8.3 3.7-13.1 4.8z" />
    <path class="st5" d="M4.8 49.8c3.7-.2 7.3-.6 10.6-1.4-3.8-.9-7.4-2.1-10.6-3.6v5z" />
    <path class="st6"
        d="M4.8 42.4v2.5c3.3 1.5 6.8 2.7 10.6 3.6 4.7-1.1 9.1-2.7 13-4.7-5.4-2.8-9.8-6.2-13-10-2.7 3.1-6.3 6.1-10.6 8.6z" />
    <path class="st5" d="M78.2 44.9c-3.3 1.5-6.8 2.7-10.6 3.6 3.4.8 6.9 1.2 10.6 1.4v-5z" />
    <path class="st6"
        d="M78.2 44.9v-2.5c-4.3-2.5-7.9-5.5-10.6-8.6-3.2 3.7-7.7 7.2-13 10 3.9 2 8.3 3.6 13 4.7 3.8-.9 7.4-2.1 10.6-3.6z" />
    <path class="st7"
        d="M73.8 56.5c-1.9-1.2-3.8-2.4-6.2-2.4s-4.2 1.2-6.2 2.4c-2 1.3-4.1 2.6-6.9 2.6s-4.9-1.3-6.9-2.6c-1.9-1.2-3.8-2.4-6.2-2.4s-4.2 1.2-6.2 2.4c-2 1.3-4.1 2.6-6.9 2.6-2.8 0-4.9-1.3-6.9-2.6-1.9-1.2-3.8-2.4-6.2-2.4-2.4 0-4.2 1.2-6.2 2.4-1.4.9-2.7 1.7-4.3 2.2.1 1.8.3 4 .7 6.3 1.1-.5 2.2-1.1 3.2-1.8 1.9-1.2 4-2.5 6.6-2.5s4.6 1.3 6.6 2.5c2 1.3 3.9 2.5 6.5 2.5s4.5-1.2 6.5-2.5c1.9-1.2 4-2.5 6.6-2.5S46 62 48 63.2c2 1.3 3.9 2.5 6.5 2.5s4.5-1.2 6.5-2.5c1.9-1.2 4-2.5 6.6-2.5 2.6 0 4.6 1.3 6.6 2.5 1 .7 2.1 1.3 3.2 1.8.4-2.4.6-4.5.7-6.3-1.6-.5-3-1.4-4.3-2.2z" />
    <path class="st8"
        d="M45.3 102.8v-2.9l-3.4 3.4-2.9-2.8V96l2.9 2.8 3.4-3.4v-4.8L41.9 94 39 91.2v-4.6l2.9 2.8 3.4-3.4v-5.2l-3.4 3.4-2.9-2.7v-4.3l2.9 2.6 4.9-4.8-5.2-4.4-5.7 4.9v26.3c2.6 1.3 4.6 2.1 5.7 2.5.7-.2 2-.8 3.7-1.5zM32.3 91.2l-3.4 3.5-2.9-3v-4.6l2.9 2.9 3.4-3.5v-5.4l-3.4 3.4-2.9-2.9V77l2.9 2.6 4.9-4.8-5.2-4.4-5.7 4.9v18.2c3.3 2.5 6.6 4.6 9.4 6.2v-8.5zM54.9 79.8l4.9-4.8-5.2-4.4-5.7 4.9V101c2.8-1.5 6-3.4 9.4-5.8v-4l-3.4 3.5-2.9-3v-4.6l2.9 2.9 3.4-3.5v-5.4l-3.4 3.4-2.9-2.8v-4.6l2.9 2.7zM67.9 79.8l4.9-4.8-5.2-4.4-5.7 4.9v16.9c.6-.5 1.3-1 1.9-1.6 3.1-2.7 5.6-5.8 7.5-8.9v-.7l-3.4 3.4-2.9-2.9v-4.6l2.9 2.7zM15.8 79.8l4.9-4.8-5.2-4.4-5.7 4.9v2.8c2.1 4.4 5.1 8.8 9.4 12.5v-9.7l-3.4 3.4-2.9-2.9V77l2.9 2.8z" />
</svg>