<svg xmlns="http://www.w3.org/2000/svg" width="1" height="1" fill="none"><path d="M.945.645C.93.628.853.637.818.64.808.64.806.633.815.626.877.583.98.596.991.61 1.003.625.988.726.93.775.92.783.912.779.916.769.93.736.96.663.945.645zM.9.697A.724.724 0 01.01.633C0 .623.009.61.02.617A.975.975 0 00.883.67C.902.663.917.683.9.697zM.284.442a.1.1 0 00.004.03.177.177 0 00.01.023.014.014 0 01.003.008C.3.506.299.509.294.513l-.02.013a.016.016 0 01-.009.003C.262.529.26.528.255.525A.102.102 0 01.243.509a.255.255 0 01-.01-.02.121.121 0 01-.096.046A.09.09 0 01.07.51.085.085 0 01.046.448c0-.028.01-.05.03-.068a.12.12 0 01.08-.025.26.26 0 01.074.01V.339C.23.315.224.298.214.288.204.278.186.272.161.272a.15.15 0 00-.036.005.262.262 0 00-.047.015.02.02 0 01-.005 0C.068.293.066.29.066.283V.268c0-.005 0-.01.002-.012a.025.025 0 01.01-.007A.199.199 0 01.17.227c.038 0 .067.01.085.027.018.018.028.045.028.08v.109zm-.133.05A.116.116 0 00.185.486a.073.073 0 00.03-.021.052.052 0 00.012-.021.119.119 0 00.003-.03V.402A.274.274 0 00.17.394C.146.393.13.398.12.407a.048.048 0 00-.016.038c0 .015.004.027.012.035.008.008.02.012.035.012zm.264.036C.409.528.405.527.402.523.4.523.397.518.395.51L.318.257A.058.058 0 01.315.243c0-.005.003-.008.008-.008h.032c.007 0 .01 0 .013.003C.371.24.373.245.375.25L.43.47.48.25C.483.246.485.24.488.239A.023.023 0 01.5.235h.026c.006 0 .01 0 .013.003C.542.24.544.245.545.25l.053.222.057-.22A.028.028 0 01.662.237.021.021 0 01.675.235h.03c.006 0 .008.003.008.008v.006A.047.047 0 01.71.257L.63.512c0 .006-.003.01-.006.013a.021.021 0 01-.012.003H.584C.577.528.573.527.57.525.568.522.565.518.564.51L.514.299.462.51C.46.518.459.523.456.524.454.527.45.528.443.528zm.423.009a.217.217 0 01-.089-.02C.744.514.74.51.739.507a.023.023 0 01-.002-.01V.484c0-.007.002-.01.007-.01H.75a.179.179 0 00.084.019c.02 0 .037-.003.048-.01A.036.036 0 00.899.449.032.032 0 00.89.426.082.082 0 00.857.409L.809.394A.1.1 0 01.757.36.079.079 0 01.773.249.104.104 0 01.807.233.143.143 0 01.87.228a.36.36 0 01.04.009l.015.006a.028.028 0 01.01.008.018.018 0 01.003.01v.016C.937.284.935.287.93.287A.034.034 0 01.917.285.15.15 0 00.854.27.085.085 0 00.81.28C.8.286.795.295.795.309c0 .009.003.017.01.023A.098.098 0 00.84.35l.047.015a.1.1 0 01.05.032c.01.013.016.029.016.046a.085.085 0 01-.009.038.089.089 0 01-.024.03.106.106 0 01-.036.018.156.156 0 01-.047.007z" fill="#252f3e"/></svg>