<svg width="1" height="1" viewBox="0 0 1 1" fill="none" xmlns="http://www.w3.org/2000/svg">
<path d="M0.944744 0.422315C0.930928 0.404513 0.853297 0.413744 0.818099 0.41803C0.807573 0.419348 0.805928 0.410118 0.815468 0.403195C0.87731 0.359678 0.978954 0.372205 0.990797 0.386711C1.00264 0.401546 0.987507 0.503414 0.929612 0.552205C0.920731 0.559788 0.912178 0.555832 0.916125 0.545942C0.929283 0.513304 0.95856 0.439788 0.944744 0.422315ZM0.899677 0.473749C0.791454 0.553859 0.634217 0.596386 0.49902 0.596386C0.309546 0.596386 0.138822 0.526167 0.0098748 0.409463C-0.000322569 0.400233 0.00888796 0.387705 0.021059 0.394958C0.160533 0.476057 0.332572 0.525178 0.510533 0.525178C0.630598 0.525178 0.762506 0.500123 0.883888 0.448694C0.90198 0.440452 0.917441 0.460562 0.899677 0.473749ZM0.284216 0.218906C0.284216 0.231104 0.285531 0.240994 0.287834 0.248247C0.290466 0.2555 0.293755 0.263412 0.29836 0.271983C0.300005 0.274621 0.300663 0.277258 0.300663 0.279566C0.300663 0.282862 0.298689 0.286159 0.294413 0.289456L0.273689 0.303302C0.270729 0.30528 0.267768 0.306269 0.265137 0.306269C0.261847 0.306269 0.258558 0.304621 0.255268 0.301654C0.250663 0.296709 0.246716 0.291434 0.243426 0.286159C0.240137 0.280555 0.236847 0.274291 0.233229 0.266709C0.207571 0.297038 0.175334 0.312203 0.136518 0.312203C0.108887 0.312203 0.0868472 0.304291 0.0707288 0.288467C0.0546104 0.272643 0.0463867 0.251544 0.0463867 0.22517C0.0463867 0.197148 0.0562551 0.174401 0.0763209 0.157258C0.0963867 0.140115 0.123031 0.131544 0.156913 0.131544C0.168097 0.131544 0.17961 0.132533 0.191781 0.134181C0.203952 0.135829 0.216453 0.138467 0.22961 0.141434V0.117368C0.22961 0.0923129 0.224347 0.0748404 0.21415 0.0646206C0.203624 0.0544008 0.18586 0.0494558 0.160531 0.0494558C0.149018 0.0494558 0.137176 0.0507744 0.125005 0.0537415C0.112834 0.0567085 0.100992 0.0603349 0.0894788 0.0649503C0.0842157 0.067258 0.0802683 0.0685766 0.0779657 0.069236C0.075663 0.0698953 0.0740183 0.070225 0.0727025 0.070225C0.0680972 0.070225 0.0657946 0.0669283 0.0657946 0.0600052V0.0438514C0.0657946 0.0385766 0.0664525 0.0346206 0.0680972 0.0323129C0.069742 0.0300052 0.0727025 0.0276975 0.0773078 0.0253898C0.0888209 0.0194558 0.102637 0.0145107 0.118755 0.0105547C0.134874 0.00626895 0.151979 0.00429093 0.170071 0.00429093C0.209216 0.00429093 0.237834 0.013192 0.256255 0.0309942C0.274347 0.0487964 0.283558 0.0758294 0.283558 0.112093V0.218906H0.284216ZM0.150663 0.269016C0.161518 0.269016 0.172703 0.267038 0.184545 0.263082C0.196387 0.259126 0.206913 0.251873 0.215795 0.241983C0.221058 0.23572 0.225005 0.228796 0.226979 0.220884C0.228953 0.212972 0.230268 0.203412 0.230268 0.192203V0.178357C0.220729 0.176049 0.210531 0.174071 0.200005 0.172752C0.189479 0.171434 0.179281 0.170774 0.169084 0.170774C0.147045 0.170774 0.130926 0.17506 0.120071 0.183961C0.109216 0.192862 0.103953 0.20539 0.103953 0.221873C0.103953 0.237368 0.1079 0.248906 0.116124 0.256818C0.124018 0.26506 0.135531 0.269016 0.150663 0.269016ZM0.414808 0.304621C0.408887 0.304621 0.404939 0.303632 0.402308 0.301324C0.399676 0.299346 0.397374 0.29473 0.3954 0.288467L0.318097 0.0336316C0.316124 0.0270382 0.315137 0.0227525 0.315137 0.0204448C0.315137 0.0151701 0.317768 0.012203 0.323031 0.012203H0.355268C0.361518 0.012203 0.365795 0.013192 0.368097 0.0154997C0.370729 0.0174777 0.372703 0.0220931 0.374676 0.0283569L0.429939 0.246599L0.481255 0.0283569C0.4829 0.0217635 0.484874 0.0174777 0.487505 0.0154997C0.490137 0.0135217 0.494742 0.012203 0.500663 0.012203H0.526979C0.533229 0.012203 0.537505 0.013192 0.540137 0.0154997C0.542768 0.0174777 0.545071 0.0220931 0.546387 0.0283569L0.59836 0.249236L0.655268 0.0283569C0.657242 0.0217635 0.659545 0.0174777 0.661847 0.0154997C0.664479 0.0135217 0.668755 0.012203 0.674676 0.012203H0.705268C0.710531 0.012203 0.713492 0.0148404 0.713492 0.0204448C0.713492 0.0220931 0.713163 0.0237415 0.712834 0.0257195C0.712505 0.0276975 0.711847 0.0303349 0.710531 0.0339613L0.631255 0.288796C0.629281 0.29539 0.626979 0.299676 0.624347 0.301654C0.621716 0.303632 0.617439 0.30495 0.611847 0.30495H0.583558C0.577308 0.30495 0.573031 0.303961 0.5704 0.301654C0.567768 0.299346 0.565466 0.29506 0.56415 0.288467L0.513163 0.0758294L0.462505 0.288137C0.46086 0.29473 0.458887 0.299016 0.456255 0.301324C0.453624 0.303632 0.449018 0.304621 0.443097 0.304621H0.414808ZM0.837505 0.313522C0.8204 0.313522 0.803295 0.311544 0.786847 0.307588C0.7704 0.303632 0.757571 0.299346 0.749018 0.294401C0.743755 0.291434 0.740137 0.288137 0.738821 0.28517C0.737505 0.282203 0.736847 0.278906 0.736847 0.275939V0.259126C0.736847 0.252203 0.739479 0.248906 0.744413 0.248906C0.746387 0.248906 0.74836 0.249236 0.750334 0.249895C0.752308 0.250555 0.755268 0.251873 0.758558 0.253192C0.769742 0.258137 0.781913 0.262093 0.794742 0.26473C0.8079 0.267368 0.820729 0.268687 0.833887 0.268687C0.85461 0.268687 0.870729 0.26506 0.881913 0.257807C0.893097 0.250555 0.899018 0.240005 0.899018 0.226489C0.899018 0.217258 0.896058 0.209676 0.890137 0.203412C0.884216 0.197148 0.873031 0.191544 0.856913 0.186269L0.809216 0.171434C0.785202 0.163851 0.767439 0.152643 0.756584 0.137807C0.745729 0.123302 0.740137 0.107148 0.740137 0.0900052C0.740137 0.0761591 0.743097 0.0639613 0.749018 0.0534118C0.754939 0.0428624 0.762834 0.0336316 0.772702 0.0263788C0.782571 0.0187964 0.793755 0.013192 0.806913 0.00923599C0.820071 0.00527994 0.833887 0.00363159 0.84836 0.00363159C0.855597 0.00363159 0.863163 0.00396126 0.8704 0.00495027C0.877966 0.00593928 0.884874 0.00725796 0.891781 0.00857665C0.89836 0.010225 0.90461 0.0118733 0.910531 0.0138514C0.916452 0.0158294 0.921058 0.0178074 0.924347 0.0197854C0.928952 0.0224228 0.932242 0.0250602 0.934216 0.0280272C0.936189 0.0306646 0.937176 0.0342909 0.937176 0.0389063V0.0544008C0.937176 0.0613239 0.934545 0.0649503 0.92961 0.0649503C0.926979 0.0649503 0.922702 0.0636316 0.91711 0.0609942C0.89836 0.0524228 0.877308 0.0481371 0.853953 0.0481371C0.835203 0.0481371 0.8204 0.0511041 0.810203 0.0573678C0.800005 0.0636316 0.794742 0.073192 0.794742 0.0867085C0.794742 0.0959393 0.798031 0.103851 0.80461 0.110115C0.811189 0.116379 0.82336 0.122643 0.840795 0.128247L0.887505 0.143082C0.911189 0.150665 0.928295 0.161214 0.938492 0.17473C0.948689 0.188247 0.953624 0.203741 0.953624 0.220884C0.953624 0.23506 0.950663 0.247917 0.945071 0.259126C0.93915 0.270335 0.931255 0.280225 0.921058 0.288137C0.91086 0.296379 0.898689 0.302313 0.884545 0.306599C0.869742 0.311214 0.854281 0.313522 0.837505 0.313522Z" fill="#252F3E"/>

</svg>
