<svg width="1" height="1" fill="none" xmlns="http://www.w3.org/2000/svg">
    <g clip-path="url(#prefix__clip0_326_8)">
        <path fill-rule="evenodd" clip-rule="evenodd"
            d="M.499 0A.505.505 0 000 .513C0 .739.143.93.34.999c.026.005.035-.011.035-.025L.374.88C.235.91.206.82.206.82.184.758.151.743.151.743.106.712.154.712.154.712c.05.004.077.053.077.053.045.078.116.056.145.042A.11.11 0 01.408.738C.298.727.18.682.18.486.18.429.2.384.23.348A.19.19 0 01.238.212S.279.2.374.265a.47.47 0 01.25 0C.717.199.76.212.76.212a.19.19 0 01.005.136.2.2 0 01.051.138C.816.682.7.726.588.738c.019.017.034.047.034.096v.14c0 .014.009.03.033.025A.512.512 0 00.996.513.505.505 0 00.5 0z"
            fill="#24292F" />
    </g>
    <defs>
        <clipPath id="prefix__clip0_326_8">
            <path fill="#fff" d="M0 0h1v1H0z" />
        </clipPath>
    </defs>
</svg>