<svg width="1" height="1" viewBox="0 0 1 1" fill="none" xmlns="http://www.w3.org/2000/svg">
<g clip-path="url(#clip0_326_8)">
<path fill-rule="evenodd" clip-rule="evenodd" d="M0.49851 0C0.222847 0 0 0.229167 0 0.512677C0 0.739302 0.142786 0.931135 0.340867 0.999031C0.365633 1.00414 0.374704 0.988 0.374704 0.974427C0.374704 0.962542 0.373888 0.921802 0.373888 0.879354C0.235214 0.909917 0.206337 0.81824 0.206337 0.81824C0.184051 0.758823 0.151031 0.743552 0.151031 0.743552C0.105643 0.712146 0.154337 0.712146 0.154337 0.712146C0.204684 0.715542 0.231102 0.764771 0.231102 0.764771C0.275663 0.842854 0.347469 0.820792 0.376357 0.807208C0.38048 0.774104 0.393694 0.751188 0.407725 0.738458C0.297122 0.726573 0.180755 0.682438 0.180755 0.48551C0.180755 0.42949 0.200551 0.383656 0.231918 0.34801C0.226969 0.335281 0.209633 0.282646 0.236878 0.212198C0.236878 0.212198 0.278969 0.198615 0.373878 0.264823C0.414511 0.253601 0.456416 0.247892 0.49851 0.247844C0.540602 0.247844 0.58351 0.253792 0.623133 0.264823C0.718051 0.198615 0.760143 0.212198 0.760143 0.212198C0.787388 0.282646 0.770041 0.335281 0.765092 0.34801C0.797286 0.383656 0.816265 0.42949 0.816265 0.48551C0.816265 0.682438 0.699898 0.725719 0.588469 0.738458C0.606633 0.754583 0.622306 0.785135 0.622306 0.833521C0.622306 0.902271 0.62149 0.957448 0.62149 0.974417C0.62149 0.988 0.630571 1.00414 0.655327 0.999042C0.853408 0.931125 0.996194 0.739302 0.996194 0.512677C0.99701 0.229167 0.773347 0 0.49851 0Z" fill="#24292F"/>
</g>
<defs>
<clipPath id="clip0_326_8">
<rect width="1" height="1" fill="white"/>
</clipPath>
</defs>
</svg>
