<svg width="1" height="1" viewBox="0 0 1 1" fill="none" xmlns="http://www.w3.org/2000/svg">
<g clip-path="url(#clip0_324_4)">
<path d="M0.145996 0.833354C0.129329 0.833354 0.114746 0.827104 0.102246 0.814604C0.0897461 0.802104 0.0834961 0.78752 0.0834961 0.770854V0.229187C0.0834961 0.21252 0.0897461 0.197937 0.102246 0.185437C0.114746 0.172937 0.129329 0.166687 0.145996 0.166687H0.854329C0.870996 0.166687 0.885579 0.172937 0.898079 0.185437C0.910579 0.197937 0.916829 0.21252 0.916829 0.229187V0.770854C0.916829 0.78752 0.910579 0.802104 0.898079 0.814604C0.885579 0.827104 0.870996 0.833354 0.854329 0.833354H0.145996ZM0.500163 0.51877L0.145996 0.286479V0.770854H0.854329V0.286479L0.500163 0.51877ZM0.500163 0.45627L0.850163 0.229187H0.151204L0.500163 0.45627ZM0.145996 0.286479V0.229187V0.770854V0.286479Z" fill="black"/>
</g>
<defs>
<clipPath id="clip0_324_4">
<rect width="1" height="1" fill="white"/>
</clipPath>
</defs>
</svg>
