<svg width="1" height="1" viewBox="0 0 1 1" fill="none" xmlns="http://www.w3.org/2000/svg">
<g clip-path="url(#clip0_6_4)">
<path d="M0.751719 0.749425H0.875859V0.354106L0.735996 0.168616L0.648215 0.285037L0.751719 0.42231V0.74942V0.749425ZM0.876188 0.831959H0.443172L0.339664 0.694691L0.383559 0.63648L0.469047 0.74986H0.644938L0.471668 0.519625L0.515887 0.460979L0.689156 0.690785V0.457498L0.603996 0.344553L0.647559 0.286773L0.432363 6.21684e-05H0L0.123812 0.16427V0.164705H0.380609L0.47134 0.285037L0.338684 0.460974L0.247953 0.340642V0.247244H0.123812V0.408846L0.338684 0.69382L0.251227 0.809806L0.39109 0.995301H1L0.876188 0.831959Z" fill="#231F20"/>
</g>
<defs>
<clipPath id="clip0_6_4">
<rect width="1" height="1" fill="white"/>
</clipPath>
</defs>
</svg>
